<?xml version="1.0" standalone="no"?>
<!DOCTYPE svg PUBLIC "-//W3C//DTD SVG 20010904//EN"
 "http://www.w3.org/TR/2001/REC-SVG-20010904/DTD/svg10.dtd">
<svg version="1.0" xmlns="http://www.w3.org/2000/svg"
 width="160.000000pt" height="160.000000pt" viewBox="0 0 160.000000 160.000000"
 preserveAspectRatio="xMidYMid meet">
<metadata>
Created by potrace 1.14, written by Peter Selinger 2001-2017
</metadata>
<g transform="translate(0.000000,160.000000) scale(0.100000,-0.100000)"
fill="#000000" stroke="none">
<path d="M1052 1429 c-45 -23 -72 -68 -72 -121 0 -45 19 -78 59 -105 109 -74
245 44 189 163 -33 71 -107 97 -176 63z"/>
<path d="M688 1258 c-17 -14 -108 -238 -108 -267 0 -37 55 -56 79 -27 6 8 28
56 49 108 l37 94 48 -12 c27 -7 50 -14 52 -16 7 -9 -160 -349 -229 -465 -43
-73 -79 -133 -79 -133 -19 0 -276 -95 -288 -105 -20 -19 -18 -70 4 -93 26 -26
75 -18 226 37 79 28 147 54 153 57 9 6 48 64 83 125 44 76 41 74 58 58 22 -21
118 -102 139 -117 22 -16 20 -19 -68 -118 -104 -117 -114 -131 -114 -161 0
-32 25 -61 57 -67 33 -7 66 21 179 153 16 19 34 39 41 46 96 100 113 144 70
187 -26 26 -134 120 -148 128 -5 3 15 55 45 116 29 60 56 120 60 132 10 31 22
20 41 -38 13 -38 23 -52 41 -56 29 -7 41 0 159 104 72 63 89 84 87 103 -3 26
-27 49 -52 49 -9 0 -47 -27 -86 -59 l-69 -59 -17 31 c-9 18 -24 52 -33 77 -19
56 -66 116 -97 123 -13 3 -79 21 -147 41 -138 40 -150 41 -173 24z"/>
</g>
</svg>
